<?xml version="1.0" encoding="UTF-8" standalone="no"?>
<svg xmlns:sketch="http://www.bohemiancoding.com/sketch/ns" xmlns="http://www.w3.org/2000/svg" height="20px" width="132px" version="1.1" xmlns:xlink="http://www.w3.org/1999/xlink" viewBox="0 0 132 20"><!-- Generator: Sketch 3.4.2 (15857) - http://www.bohemiancoding.com/sketch -->
 <title>Logo Copy</title>
 <desc>Created with Sketch.</desc>
 <g id="Page-1" fill-rule="evenodd" sketch:type="MSPage" fill="none">
  <g id="Desktop-Standard-Article-Copy" transform="translate(-151 -5737)" fill="#f72210" sketch:type="MSArtboardGroup">
   <g id="Article" transform="translate(148 298)" sketch:type="MSLayerGroup">
    <path id="Logo-Copy" sketch:type="MSShapeGroup" d="m26.23 5450.2h4.618c0-1.9-1.293-2.7-2.259-2.7-1.114 0-2.281 0.9-2.359 2.7zm68.658 0h4.619c0-2-1.293-2.8-2.26-2.8-1.114 0-2.28 0.9-2.359 2.8zm13.942 0h4.62c0-2-1.3-2.8-2.26-2.8-1.12 0-2.28 0.9-2.36 2.8zm24.99 7.6c0.02 0 0.03-0.1 0.03-0.1s-0.01-0.1-0.03-0.1h-0.13-0.1v0.2h0.09 0.14zm0.02 0.1c0.04 0 0.06 0.1 0.08 0.1s0.04 0 0.06 0.1c0.01 0 0.05 0 0.15 0.2h-0.26c-0.08-0.2-0.14-0.3-0.17-0.3h-0.08-0.03v0.3h-0.2v-0.9h0.37c0.11 0 0.18 0.1 0.23 0.1 0.05 0.1 0.07 0.1 0.07 0.2 0 0-0.02 0.1-0.05 0.1-0.04 0.1-0.09 0.1-0.17 0.1zm0.35 0.4c0.13-0.1 0.19-0.2 0.19-0.4s-0.06-0.4-0.19-0.5-0.29-0.2-0.47-0.2-0.33 0.1-0.46 0.2-0.19 0.3-0.19 0.5 0.06 0.3 0.19 0.4c0.13 0.2 0.28 0.2 0.46 0.2s0.34 0 0.47-0.2zm0.35-0.4c0 0.1-0.04 0.3-0.11 0.4s-0.17 0.2-0.3 0.3-0.26 0.1-0.41 0.1c-0.14 0-0.28 0-0.4-0.1-0.13-0.1-0.23-0.2-0.3-0.3-0.08-0.1-0.11-0.3-0.11-0.4 0-0.2 0.03-0.3 0.11-0.4 0.07-0.2 0.17-0.3 0.3-0.3 0.12-0.1 0.26-0.1 0.4-0.1 0.15 0 0.28 0 0.41 0.1 0.13 0 0.23 0.1 0.3 0.3 0.07 0.1 0.11 0.2 0.11 0.4zm-1.9 0.8h-4.25l-4.41-5.8-1.44 1.1v1.1h1.25v3.6h-6.53v-3.6h1.24v-12.6h-1.86v-3.5h5.9v11.3l2.95-2.1h-1.86v-3.6h7.95v3.6h-1.24l-3.1 2.3 3.55 4.6h1.85v3.6zm-15.34-7.1c0 0.3 0 0.6-0.02 0.9h-8.46c-0.22 2.7 0.79 3.5 2.36 3.5 1.31 0 2.28-0.8 2.28-2.2h3.64c-0.08 2.4-1.34 5.1-6.15 5.1-4.84 0-7.09-3.4-7.09-7.3 0-3.5 2.33-7.2 7.01-7.2 4.47 0 6.43 3.1 6.43 7.2zm-13.94 0c0 0.3 0 0.6-0.02 0.9h-8.46c-0.218 2.7 0.792 3.5 2.357 3.5 1.308 0 2.279-0.8 2.279-2.2h3.644c-0.08 2.4-1.34 5.2-6.154 5.2-4.838 0-7.088-3.5-7.088-7.4 0-3.5 2.328-7.2 7.01-7.2 4.472 0 6.432 3.1 6.432 7.2zm-13.048-3.5h-1.239l-3.136 10.6h-4.165l-1.972-5.8-1.744 5.8h-4.25l-3.519-10.6h-1.238v-3.5h7.362v3.5h-1.857l1.917 5.7 2.526-9.2h2.264l3.101 9.2 1.65-5.7h-1.857v-3.5h6.157v3.5zm-29.391 0.2c0 0.5 0.393 0.8 1.779 1.3l1.988 0.6c1.831 0.6 4.027 2 4.027 4.5 0 2.9-2.196 4.3-4.891 4.3-2.144 0-3.839-1-4.284-1.5l-0.005 1.2h-3.6v-4.9h3.521c0.105 1.6 1.518 2.4 2.825 2.4 1.047 0 1.543-0.4 1.543-1s-0.392-1-2.171-1.6l-1.752-0.5c-1.778-0.6-3.792-1.9-3.792-4.3 0-2.9 2.563-4.4 4.76-4.4 2.275 0 3.362 0.7 3.912 1.3l0.011-1.1h3.606v4.4h-3.71c-0.053-1.2-1.23-1.7-2.407-1.7-0.915 0-1.36 0.4-1.36 1zm-5.175-0.2h-1.238l-3.136 10.6h-4.165l-1.972-5.8-1.744 5.8h-4.25l-3.519-10.6h-1.239v-3.5h7.363v3.5h-1.857l1.917 5.7 2.526-9.2h2.264l3.101 9.2 1.65-5.7h-1.857v-3.5h6.156v3.5zm-21.042 3.6c0 0.2 0 0.5-0.026 0.8h-8.457c-0.218 2.8 0.793 3.6 2.358 3.6 1.308 0 2.279-0.9 2.279-2.2h3.645c-0.078 2.4-1.342 5.1-6.155 5.1-4.838 0-7.088-3.5-7.088-7.4 0-3.5 2.328-7.2 7.009-7.2 4.473 0 6.435 3.1 6.435 7.3zm-12.209-9.1h-1.853v15.9h-3.418l-8.3524-10.9v7.3h1.8534v3.6h-7.725v-3.6h1.8529v-12.3h-1.8529v-3.6h5.8642l7.7598 10.1v-6.5h-1.854v-3.6h7.725v3.6z"/>
   </g>
  </g>
 </g>
</svg>
